# AST/ASF file generated using VICON BodyLanguage
# -----------------------------------------------
:version 1.10
:name VICON
:units
  mass 1.0
  length 0.45
  angle deg
:documentation
   .ast/.asf automatically generated from VICON data using
   VICON BodyBuilder and BodyLanguage model FoxedUp or BRILLIANT.MOD
:root
   order TX TY TZ RX RY RZ
   axis XYZ
   position 0 0 0  
   orientation 0 0 0 
:bonedata
  begin
     id 1 
     name lhipjoint
     direction 0.567725 -0.736092 0.368589 
     length 2.42353 
     axis 0 0 0  XYZ
  end
  begin
     id 2 
     name lfemur
     direction 0.34202 -0.939693 0  
     length 7.24894  
     axis 0 0 20  XYZ
    dof rx ry rz
    limits (-160.0 20.0)
           (-70.0 70.0)
           (-60.0 70.0)
  end
  begin
     id 3 
     name ltibia
     direction 0.34202 -0.939693 0   
     length 7.6997   
     axis 0 0 20   XYZ
    dof rx
    limits (-10.0 170.0)
  end
  begin
     id 4 
     name lfoot
     direction 0.100767 -0.276854 0.955614   
     length 2.37556   
     axis -90 7.62852e-016 20   XYZ
    dof rx rz
    limits (-45.0 90.0)
           (-70.0 20.0)
  end
  begin
     id 5 
     name ltoes
     direction 1.53592e-011 -4.21894e-011 1   
     length 1.18363   
     axis -90 7.62852e-016 20   XYZ
    dof rx
    limits (-90.0 20.0)
  end
  begin
     id 6 
     name rhipjoint
     direction -0.556459 -0.742938 0.372017   
     length 2.4012  
     axis 0 0 0  XYZ 
  end
  begin
     id 7 
     name rfemur
     direction -0.34202 -0.939693 0   
     length 7.5119   
     axis 0 0 -20   XYZ
    dof rx ry rz
    limits (-160.0 20.0)
           (-70.0 70.0)
           (-70.0 60.0)
  end
  begin
     id 8 
     name rtibia
     direction -0.34202 -0.939693 0   
     length 7.50155   
     axis 0 0 -20   XYZ
    dof rx
    limits (-10.0 170.0)
 end
 begin
     id 9 
     name rfoot
     direction -0.118427 -0.325376 0.938139   
     length 2.32487  
     axis -90 -7.62852e-016 -20   XYZ
    dof rx rz
    limits (-45.0 90.0)
           (-20.0 70.0)
  end
  begin
     id 10 
     name rtoes
     direction -1.53525e-011 -4.21868e-011 1   
     length 1.15233   
     axis -90 -7.62852e-016 -20   XYZ
    dof rx
    limits (-90.0 20.0)
  end
  begin
     id 11 
     name lowerback
     direction 0.0287568 0.999577 -0.00434502   
     length 2.15243   
     axis 0 0 0   XYZ
    dof rx ry rz
    limits (-20.0 45.0)
           (-30.0 30.0)
           (-30.0 30.0)
  end
  begin
     id 12 
     name upperback
     direction 0.0294009 0.99956 0.00404628   
     length 2.15427   
     axis 0 0 0   XYZ
    dof rx ry rz
    limits (-20.0 45.0)
           (-30.0 30.0)
           (-30.0 30.0)
  end
  begin
     id 13 
     name thorax
     direction 0.0151014 0.999868 0.0059419   
     length 2.14898   
     axis 0 0 0   XYZ
    dof rx ry rz
    limits (-20.0 45.0)
           (-30.0 30.0)
           (-30.0 30.0)
  end
  begin
     id 14 
     name lowerneck
     direction -0.0249197 0.989906 0.139515   
     length 1.6861   
     axis 0 0 0   XYZ
    dof rx ry rz
    limits (-20.0 45.0)
           (-30.0 30.0)
           (-30.0 30.0)
  end
  begin
     id 15 
     name upperneck
     direction 0.0438463 0.988795 -0.142693   
     length 1.71276   
     axis 0 0 0   XYZ
    dof rx ry rz
    limits (-20.0 45.0)
           (-30.0 30.0)
           (-30.0 30.0)
  end
  begin
     id 16
     name head
     direction 0.0148499 0.997845 -0.0639186  
     length 1.7209  
     axis 0 0 0   XYZ
    dof rx ry rz
    limits (-20.0 45.0)
           (-30.0 30.0)
           (-30.0 30.0)
  end
  begin
     id 17 
     name lclavicle
     direction 0.940298 0.323464 -0.105876  
     length 3.9048  
     axis 0 0 0   XYZ
    dof ry rz
    limits (-20.0 10.0)
           (0.0 20.0)
  end
  begin
     id 18 
     name lhumerus
     direction 1 -4.48954e-011 -4.9675e-028   
     length 4.6851   
     axis 180 -30 -90   XYZ
    dof rx ry rz
    limits (-60.0 90.0)
           (-90.0 90.0)
           (-90.0 90.0)
  end
  begin
     id 19
     name lradius
     direction 1 -4.48992e-011 -1.03359e-026   
     length 3.39626   
     axis 180 -30 -90   XYZ
    dof rx
    limits (-10.0 170.0)
  end
  begin
     id 20
     name lwrist
     direction 1 -4.48906e-011 -1.67336e-026   
     length 1.69813   
     axis 9.90442e-015 90 90   XYZ
    dof ry
    limits (-180.0 0.0)
 end
  begin
     id 21 
     name lhand
     direction 1 -4.49006e-011 -3.34673e-026   
     length 0.486078   
     axis 2.1355e-014 90 90   XYZ
    dof rx rz
    limits (-90.0 90.0)
           (-45.0 45.0)
  end
  begin
     id 22 
     name lfingers
     direction 1 -4.48992e-011 -6.69345e-026   
     length 0.391889   
     axis 4.27099e-014 90 90   XYZ
    dof rx
    limits (0.0 90.0)
  end
  begin
     id 23
     name lthumb
     direction 0.707107 -6.34926e-011 0.707107   
     length 0.562676   
     axis -90 45 2.85299e-015   XYZ
    dof rx rz
    limits (-45.0 45.0)
           (-45.0 45.0)
  end
  begin
     id 24 
     name rclavicle
     direction -0.882459 0.414895 -0.221648   
     length 3.44646  
     axis 0 0 0   XYZ 
    dof ry rz
    limits (-10.0 20.0)
           (-20.0 0.0)
  end
  begin
     id 25 
     name rhumerus
     direction -1 -4.48962e-011 -2.37984e-027  
     length 5.55576   
     axis 180 30 90   XYZ
    dof rx ry rz
    limits (-90.0 60.0)
           (-90.0 90.0)
           (-90.0 90.0)
  end
  begin
     id 26 
     name rradius
     direction -1 -4.48982e-011 -6.86791e-027   
     length 3.32774   
     axis 180 30 90   XYZ
    dof rx
    limits (-10.0 170.0)
  end
  begin
     id 27 
     name rwrist
     direction -1 -4.48961e-011 -1.67336e-026   
     length 1.66387   
     axis 9.90442e-015 -90 -90   XYZ
    dof ry
    limits (-180.0 0.0)
  end
  begin
     id 28
     name rhand
     direction -1 -4.4897e-011 -3.34673e-026   
     length 0.507628   
     axis 2.1355e-014 -90 -90   XYZ
    dof rx rz
    limits (-90.0 90.0)
           (-45.0 45.0)
  end
  begin
     id 29
     name rfingers
     direction -1 -4.48854e-011 -6.69345e-026   
     length 0.409263   
     axis 4.27099e-014 -90 -90   XYZ
    dof rx
    limits (0.0 90.0)
  end
  begin
     id 30
     name rthumb
     direction -0.707107 -6.34913e-011 0.707107   
     length 0.587622   
     axis -90 -45 -2.85299e-015   XYZ
    dof rx rz
    limits (-45.0 45.0)
           (-45.0 45.0)
  end
:hierarchy
  begin
    root lhipjoint rhipjoint lowerback
    lhipjoint lfemur
    lfemur ltibia
    ltibia lfoot
    lfoot ltoes
    rhipjoint rfemur
    rfemur rtibia
    rtibia rfoot
    rfoot rtoes
    lowerback upperback
    upperback thorax
    thorax lowerneck lclavicle rclavicle
    lowerneck upperneck
    upperneck head
    lclavicle lhumerus
    lhumerus lradius
    lradius lwrist
    lwrist lhand lthumb
    lhand lfingers
    rclavicle rhumerus
    rhumerus rradius
    rradius rwrist
    rwrist rhand rthumb
    rhand rfingers
  end

#!OML:ASF E:\motion texture\Top Level 1\Subject 1\Session 1\male.ASF
:FULLY-SPECIFIED
:DEGREES
64
root 24.9548 17.955 5.09849 -262.722 -82.0869 268.615
lowerback 1.30805 -1.28488 5.03409
upperback -0.147345 -1.74157 5.47683
thorax -0.860031 -0.948671 2.85755
lowerneck -10.7891 -2.67646 -3.36661
upperneck 10.0152 -3.5969 4.11082
head 4.90954 -1.63754 1.55593
rclavicle 9.24349e-015 -2.22639e-014
rhumerus -28.2861 -1.81395 -69.3042
rradius 110.863
rwrist -1.13738
rhand -22.2141 -22.9091
rfingers 7.12502
rthumb 4.20199 -52.8474
lclavicle 9.24349e-015 -2.22639e-014
lhumerus -20.3391 -14.4691 93.0192
lradius 101.813
lwrist 2.24634
lhand -22.7536 24.126
lfingers 7.12502
lthumb 3.68103 54.074
rfemur -10.4305 4.30982 30.9429
rtibia 16.8369
rfoot -8.48475 -7.51115
rtoes 15.4278
lfemur -27.6783 4.55577 -6.70456
ltibia 59.759
lfoot -6.0416 2.51351
ltoes -14.2512
65
root 24.8479 17.9543 5.08879 -261.754 -81.9555 267.657
lowerback 1.33739 -1.16683 5.1786
upperback -0.203754 -1.57377 5.41813
thorax -0.942346 -0.866243 2.7143
lowerneck -10.8053 -2.72129 -3.46418
upperneck 10.0168 -3.62564 3.99266
head 4.91334 -1.66219 1.53266
rclavicle 1.44119e-014 -1.59028e-015
rhumerus -26.6062 -0.959902 -69.5069
rradius 109.861
rwrist -0.788259
rhand -22.8676 -22.4723
rfingers 7.12502
rthumb 3.57099 -52.4221
lclavicle 1.44119e-014 -1.59028e-015
lhumerus -19.4887 -13.7999 92.7252
lradius 100.821
lwrist 1.45737
lhand -23.52 23.9268
lfingers 7.12502
lthumb 2.94094 53.8863
rfemur -9.91197 4.36687 31.1592
rtibia 16.6055
rfoot -8.72278 -7.43618
rtoes 15.3604
lfemur -28.4159 4.67801 -6.58037
ltibia 58.8397
lfoot -6.49795 2.77302
ltoes -14.4095
66
root 24.741 17.9528 5.08022 -260.777 -81.8258 266.698
lowerback 1.35741 -1.04902 5.32688
upperback -0.258845 -1.40711 5.35744
thorax -1.01702 -0.784555 2.56642
lowerneck -10.8334 -2.76618 -3.5553
upperneck 10.0133 -3.65373 3.8655
head 4.91721 -1.68674 1.50545
rclavicle -4.37326e-015 2.06736e-014
rhumerus -24.9401 -0.0442235 -69.683
rradius 108.63
rwrist -0.504313
rhand -23.5479 -22.0704
rfingers 7.12502
rthumb 2.914 -52.0303
lclavicle -4.37326e-015 2.06736e-014
lhumerus -18.6675 -13.1697 92.4583
lradius 99.6849
lwrist 0.740932
lhand -24.2296 23.7605
lfingers 7.12502
lthumb 2.25566 53.7283
rfemur -9.42386 4.40673 31.3633
rtibia 16.412
rfoot -8.96851 -7.3535
rtoes 15.2591
lfemur -29.0978 4.78708 -6.4555
ltibia 57.7688
lfoot -6.90903 3.03947
ltoes -14.5509
67
root 24.6342 17.9507 5.07272 -259.784 -81.699 265.733
lowerback 1.36678 -0.931688 5.47524
upperback -0.315103 -1.24196 5.2954
thorax -1.08576 -0.703801 2.41672
lowerneck -10.8658 -2.81101 -3.64312
upperneck 10.0069 -3.68154 3.73451
head 4.92077 -1.71126 1.47648
rclavicle 1.13307e-014 1.27222e-014
rhumerus -23.2946 0.92794 -69.8305
rradius 107.173
rwrist -0.286633
rhand -24.2311 -21.7508
rfingers 7.12502
rthumb 2.2542 -51.7187
lclavicle 1.13307e-014 1.27222e-014
lhumerus -17.8791 -12.5788 92.2153
lradius 98.4084
lwrist 0.100496
lhand -24.8381 23.6291
lfingers 7.12502
lthumb 1.66797 53.6024
rfemur -8.96915 4.43578 31.5538
rtibia 16.2588
rfoot -9.21614 -7.26614
rtoes 15.0781
lfemur -29.7251 4.88012 -6.33089
ltibia 56.5529
lfoot -7.2819 3.31432
ltoes -14.6845
68
root 24.5272 17.9477 5.06624 -258.799 -81.584 264.785
lowerback 1.36852 -0.816286 5.6151
upperback -0.372216 -1.08003 5.23024
thorax -1.14983 -0.624705 2.26831
lowerneck -10.9179 -2.85508 -3.73234
upperneck 10.0119 -3.70793 3.60476
head 4.93116 -1.73486 1.44793
rclavicle 1.83876e-015 1.35174e-014
rhumerus -21.6712 1.94918 -69.9492
rradius 105.497
rwrist -0.141409
rhand -24.8941 -21.5521
rfingers 7.12502
rthumb 1.61382 -51.5257
lclavicle 1.83876e-015 1.35174e-014
lhumerus -17.1239 -12.0282 91.9936
lradius 96.9967
lwrist -0.464598
lhand -25.3492 23.533
lfingers 7.12502
lthumb 1.17433 53.5095
rfemur -8.54655 4.45892 31.7216
rtibia 16.1479
rfoot -9.47701 -7.18149
rtoes 14.8494
lfemur -30.2938 4.94643 -6.21484
ltibia 55.1925
lfoot -7.62178 3.60244
ltoes -14.8324
69
root 24.4198 17.9441 5.06053 -257.815 -81.4825 263.847
lowerback 1.35901 -0.702098 5.73963
upperback -0.428856 -0.920978 5.16335
thorax -1.20576 -0.546957 2.12639
lowerneck -10.9876 -2.89916 -3.82383
upperneck 10.0297 -3.73371 3.47551
head 4.94846 -1.7581 1.41965
rclavicle 8.49804e-015 -2.14687e-014
rhumerus -20.074 3.01542 -70.0379
rradius 103.621
rwrist -0.0714508
rhand -25.5003 -21.5378
rfingers 7.12502
rthumb 1.02837 -51.5151
lclavicle 8.49804e-015 -2.14687e-014
lhumerus -16.3997 -11.5194 91.7926
lradius 95.455
lwrist -0.946949
lhand -25.7465 23.4741
lfingers 7.12502
lthumb 0.79054 53.4523
rfemur -8.15648 4.48415 31.8644
rtibia 16.0807
rfoot -9.75529 -7.10057
rtoes 14.6195
lfemur -30.8033 4.98537 -6.10771
ltibia 53.6921
lfoot -7.92407 3.90578
ltoes -15.0237
70
root 24.3121 17.9399 5.05573 -256.842 -81.4004 262.925
lowerback 1.34405 -0.589351 5.84463
upperback -0.488851 -0.764234 5.09232
thorax -1.26088 -0.470295 1.99101
lowerneck -11.0568 -2.94206 -3.91891
upperneck 10.0583 -3.75822 3.35137
head 4.96916 -1.78066 1.39354
rclavicle -3.47873e-016 2.22639e-014
rhumerus -18.5182 4.12051 -70.0978
rradius 101.572
rwrist -0.0935576
rhand -25.9084 -21.7481
rfingers 7.12502
rthumb 0.634172 -51.7269
lclavicle -3.47873e-016 2.22639e-014
lhumerus -15.7186 -11.0532 91.6146
lradius 93.7883
lwrist -1.35149
lhand -26.0349 23.4363
lfingers 7.12502
lthumb 0.512049 53.4155
rfemur -7.79251 4.51162 31.9757
rtibia 16.0526
rfoot -10.0474 -7.02221
rtoes 14.3922
lfemur -31.2467 4.98792 -6.01648
ltibia 52.0529
lfoot -8.18515 4.22718
ltoes -15.249
71
root 24.2037 17.9351 5.05175 -255.883 -81.3324 262.021
lowerback 1.32226 -0.476928 5.93679
upperback -0.553752 -0.608289 5.01673
thorax -1.31621 -0.394054 1.85799
lowerneck -11.1085 -2.98465 -4.01598
upperneck 10.089 -3.78362 3.23476
head 4.98781 -1.80361 1.37017
rclavicle 1.2921e-015 -2.38542e-014
rhumerus -17.0211 5.25791 -70.1304
rradius 99.3913
rwrist -0.237155
rhand -26.1399 -22.1955
rfingers 7.12502
rthumb 0.410612 -52.1749
lclavicle 1.2921e-015 -2.38542e-014
lhumerus -15.0856 -10.6368 91.4561
lradius 92.0025
lwrist -1.6673
lhand -26.2195 23.4264
lfingers 7.12502
lthumb 0.333781 53.4059
rfemur -7.44997 4.54016 32.0629
rtibia 16.0601
rfoot -10.3518 -6.9477
rtoes 14.1644
lfemur -31.6188 4.95477 -5.93296
ltibia 50.2721
lfoot -8.38394 4.56587
ltoes -15.5138
72
root 24.0944 17.9295 5.04866 -254.972 -81.2751 261.168
lowerback 1.29809 -0.364111 6.02461
upperback -0.623567 -0.451645 4.93489
thorax -1.37439 -0.317609 1.72091
lowerneck -11.1529 -3.02993 -4.10814
upperneck 10.1266 -3.81446 3.1228
head 5.00764 -1.82896 1.34704
rclavicle 2.03754e-015 -1.27222e-014
rhumerus -15.5931 6.41689 -70.1388
rradius 97.1185
rwrist -0.522076
rhand -26.1547 -22.9042
rfingers 7.12502
rthumb 0.396356 -52.8835
lclavicle 2.03754e-015 -1.27222e-014
lhumerus -14.495 -10.2808 91.3145
lradius 90.1011
lwrist -1.8914
lhand -26.2975 23.4363
lfingers 7.12502
lthumb 0.258454 53.4159
rfemur -7.1225 4.56766 32.1317
rtibia 16.0933
rfoot -10.6631 -6.8824
rtoes 13.9357
lfemur -31.9183 4.87791 -5.85199
ltibia 48.3531
lfoot -8.50725 4.92461
ltoes -15.7847
73
root 23.984 17.9233 5.04646 -254.127 -81.2248 260.384
lowerback 1.26743 -0.251621 6.11094
upperback -0.696882 -0.295888 4.85008
thorax -1.43165 -0.241772 1.58159
lowerneck -11.1938 -3.07823 -4.20012
upperneck 10.1693 -3.85041 3.01702
head 5.02877 -1.85656 1.32536
rclavicle 1.93815e-015 4.29375e-014
rhumerus -14.2397 7.59722 -70.1207
rradius 94.7919
rwrist -0.971869
rhand -25.942 -23.8598
rfingers 7.12502
rthumb 0.601787 -53.8387
lclavicle 1.93815e-015 4.29375e-014
lhumerus -13.9436 -9.98325 91.1888
lradius 88.0888
lwrist -2.01962
lhand -26.2575 23.4395
lfingers 7.12502
lthumb 0.297006 53.419
rfemur -6.80837 4.59051 32.1893
rtibia 16.1473
rfoot -10.9742 -6.83559
rtoes 13.6539
lfemur -32.1456 4.75281 -5.76728
ltibia 46.299
lfoot -8.53774 5.29793
ltoes -16.0344
74
root 23.8725 17.9163 5.04509 -253.362 -81.1744 259.685
lowerback 1.21828 -0.139302 6.2064
upperback -0.765356 -0.142559 4.76229
thorax -1.47266 -0.167076 1.43407
lowerneck -11.2289 -3.13074 -4.29669
upperneck 10.205 -3.89333 2.92816
head 5.04747 -1.88679 1.30919
rclavicle 8.49804e-015 -1.03368e-014
rhumerus -12.9533 8.79169 -70.0792
rradius 92.4399
rwrist -1.60704
rhand -25.5088 -25.0166
rfingers 7.12502
rthumb 1.02012 -54.9939
lclavicle 8.49804e-015 -1.03368e-014
lhumerus -13.4163 -9.74997 91.0704
lradius 85.9716
lwrist -2.05246
lhand -26.1282 23.4449
lfingers 7.12502
lthumb 0.421959 53.4242
rfemur -6.50248 4.60219 32.2448
rtibia 16.2133
rfoot -11.2768 -6.80454
rtoes 13.319
lfemur -32.3005 4.57089 -5.66573
ltibia 44.1137
lfoot -8.46578 5.68187
ltoes -16.2274
75
root 23.7595 17.9086 5.04438 -252.703 -81.1204 259.096
lowerback 1.15107 -0.0266636 6.31217
upperback -0.831121 0.0091102 4.67329
thorax -1.49979 -0.0932229 1.27967
lowerneck -11.2594 -3.18929 -4.39341
upperneck 10.237 -3.94615 2.85295
head 5.06488 -1.92108 1.29654
rclavicle 4.22417e-015 -3.57812e-014
rhumerus -11.7442 9.99572 -70.0123
rradius 90.0853
rwrist -2.43363
rhand -24.8737 -26.3122
rfingers 7.12502
rthumb 1.63355 -56.2857
lclavicle 4.22417e-015 -3.57812e-014
lhumerus -12.9139 -9.58953 90.9579
lradius 83.755
lwrist -1.99149
lhand -25.9111 23.4444
lfingers 7.12502
lthumb 0.631617 53.4232
rfemur -6.19783 4.60951 32.3057
rtibia 16.2805
rfoot -11.5678 -6.79959
rtoes 12.9419
lfemur -32.3866 4.32318 -5.53764
ltibia 41.808
lfoot -8.29713 6.06964
ltoes -16.3375
76
root 23.6449 17.9003 5.04425 -252.169 -81.0653 258.639
lowerback 1.06334 0.0847652 6.42438
upperback -0.895856 0.156838 4.58427
thorax -1.51339 -0.0213136 1.12198
lowerneck -11.2739 -3.25192 -4.49565
upperneck 10.2619 -4.00621 2.79465
head 5.07823 -1.9582 1.28967
rclavicle -6.26172e-015 4.96962e-014
rhumerus -10.615 11.202 -69.9218
rradius 87.7392
rwrist -3.4231
rhand -24.0442 -27.6745
rfingers 7.12502
rthumb 2.43468 -57.6404
lclavicle -6.26172e-015 4.96962e-014
lhumerus -12.4435 -9.50028 90.8528
lradius 81.4501
lwrist -1.85011
lhand -25.6202 23.4554
lfingers 7.12502
lthumb 0.912567 53.4332
rfemur -5.89323 4.60619 32.3711
rtibia 16.3473
rfoot -11.8411 -6.82393
rtoes 12.4838
lfemur -32.4064 3.99957 -5.38142
ltibia 39.3879
lfoot -8.05337 6.46117
ltoes -16.3793
77
root 23.5286 17.8915 5.04449 -251.737 -81.0064 258.287
lowerback 0.962083 0.196266 6.53856
upperback -0.956428 0.302646 4.49792
thorax -1.51412 0.0497573 0.966345
lowerneck -11.3053 -3.31947 -4.59663
upperneck 10.2962 -4.07358 2.74513
head 5.09774 -1.99817 1.2844
rclavicle 2.43511e-015 -2.34566e-014
rhumerus -9.56168 12.4028 -69.8082
rradius 85.4122
rwrist -4.52808
rhand -23.047 -29.0522
rfingers 7.12502
rthumb 3.39769 -59.0048
lclavicle 2.43511e-015 -2.34566e-014
lhumerus -11.9968 -9.47934 90.7555
lradius 79.0681
lwrist -1.63192
lhand -25.2435 23.4989
lfingers 7.12502
lthumb 1.27639 53.4748
rfemur -5.58161 4.59 32.4454
rtibia 16.4076
rfoot -12.1014 -6.8788
rtoes 11.9976
lfemur -32.3587 3.59731 -5.19003
ltibia 36.8657
lfoot -7.78338 6.84537
ltoes -16.3583
78
root 23.4102 17.8822 5.04513 -251.395 -80.9474 258.029
lowerback 0.841033 0.304855 6.64701
upperback -1.01831 0.442108 4.41787
thorax -1.50437 0.117754 0.820985
lowerneck -11.323 -3.38592 -4.70407
upperneck 10.3323 -4.13993 2.70225
head 5.11584 -2.03767 1.28246
rclavicle 7.30534e-015 -1.27222e-014
rhumerus -8.59083 13.6018 -69.6761
rradius 83.1347
rwrist -5.69545
rhand -21.7539 -30.4239
rfingers 7.12502
rthumb 4.64645 -60.353
lclavicle 7.30534e-015 -1.27222e-014
lhumerus -11.5964 -9.50526 90.6742
lradius 76.6323
lwrist -1.34327
lhand -24.746 23.5898
lfingers 7.12502
lthumb 1.75686 53.5623
rfemur -5.26012 4.55485 32.5251
rtibia 16.4567
rfoot -12.3518 -6.96816
rtoes 11.4885
lfemur -32.2467 3.10772 -4.96458
ltibia 34.2536
lfoot -7.53542 7.21882
ltoes -16.263
